<?xml version="1.0" standalone="no"?><svg xmlns="http://www.w3.org/2000/svg" viewBox="0 0 1440 320"><path fill="#79a9d2" fill-opacity="1" d="M0,192L21.8,165.3C43.6,139,87,85,131,58.7C174.5,32,218,32,262,58.7C305.5,85,349,139,393,170.7C436.4,203,480,213,524,202.7C567.3,192,611,160,655,138.7C698.2,117,742,107,785,90.7C829.1,75,873,53,916,69.3C960,85,1004,139,1047,149.3C1090.9,160,1135,128,1178,128C1221.8,128,1265,160,1309,186.7C1352.7,213,1396,235,1418,245.3L1440,256L1440,0L1418.2,0C1396.4,0,1353,0,1309,0C1265.5,0,1222,0,1178,0C1134.5,0,1091,0,1047,0C1003.6,0,960,0,916,0C872.7,0,829,0,785,0C741.8,0,698,0,655,0C610.9,0,567,0,524,0C480,0,436,0,393,0C349.1,0,305,0,262,0C218.2,0,175,0,131,0C87.3,0,44,0,22,0L0,0Z"></path></svg>